<svg width="23" height="23" viewBox="0 0 23 23" fill="none" xmlns="http://www.w3.org/2000/svg">
<g opacity="0.5">
<rect width="23" height="23" rx="11.5" fill="#F00500" fill-opacity="0.31"/>
</g>
<path d="M16.2538 11.0171C16.6379 11.0171 16.7983 10.5234 16.4863 10.2958L11.7391 6.84077C11.6713 6.79107 11.5894 6.76428 11.5054 6.76428C11.4213 6.76428 11.3395 6.79107 11.2717 6.84077L6.52444 10.2958C6.21244 10.5221 6.37279 11.0171 6.75814 11.0171H7.52759V15.6686H6.63259C6.57789 15.6686 6.53314 15.7133 6.53314 15.7681V16.4148C6.53314 16.4695 6.57789 16.5143 6.63259 16.5143H16.3781C16.4328 16.5143 16.4776 16.4695 16.4776 16.4148V15.7681C16.4776 15.7133 16.4328 15.6686 16.3781 15.6686H15.4831V11.0171H16.2538ZM11.5054 7.71758L14.8753 10.1702H8.13544L11.5054 7.71758ZM8.42259 11.0171H9.87696V15.6686H8.42259V11.0171ZM10.772 11.0171H12.2263V15.6686H10.772V11.0171ZM14.5881 15.6686H13.1213V11.0171H14.5881V15.6686Z" fill="#F00500"/>
</svg>
