<svg width="23" height="24" viewBox="0 0 23 24" fill="none" xmlns="http://www.w3.org/2000/svg">
<g opacity="0.5">
<rect y="0.615356" width="23" height="23" rx="11.5" fill="#FF993A" fill-opacity="0.31"/>
</g>
<path d="M16.2538 11.6325C16.6379 11.6325 16.7983 11.1387 16.4863 10.9111L11.7391 7.45614C11.6713 7.40645 11.5894 7.37965 11.5054 7.37965C11.4213 7.37965 11.3395 7.40645 11.2717 7.45614L6.52444 10.9111C6.21244 11.1375 6.37279 11.6325 6.75814 11.6325H7.52759V16.2839H6.63259C6.57789 16.2839 6.53314 16.3287 6.53314 16.3834V17.0302C6.53314 17.0849 6.57789 17.1297 6.63259 17.1297H16.3781C16.4328 17.1297 16.4776 17.0849 16.4776 17.0302V16.3834C16.4776 16.3287 16.4328 16.2839 16.3781 16.2839H15.4831V11.6325H16.2538ZM11.5054 8.33295L14.8753 10.7855H8.13544L11.5054 8.33295ZM8.42259 11.6325H9.87696V16.2839H8.42259V11.6325ZM10.772 11.6325H12.2263V16.2839H10.772V11.6325ZM14.5881 16.2839H13.1213V11.6325H14.5881V16.2839Z" fill="#FF993A"/>
</svg>
