<svg width="23" height="23" viewBox="0 0 23 23" fill="none" xmlns="http://www.w3.org/2000/svg">
<g opacity="0.5">
<rect width="23" height="23" rx="11.5" fill="#FFABD5" fill-opacity="0.27"/>
</g>
<path d="M16.2538 10.0171C16.6379 10.0171 16.7983 9.52338 16.4863 9.29578L11.7391 5.84078C11.6713 5.79109 11.5894 5.76429 11.5054 5.76429C11.4213 5.76429 11.3395 5.79109 11.2717 5.84078L6.52444 9.29578C6.21244 9.52214 6.37279 10.0171 6.75814 10.0171H7.52759V14.6686H6.63259C6.57789 14.6686 6.53314 14.7134 6.53314 14.7681V15.4148C6.53314 15.4695 6.57789 15.5143 6.63259 15.5143H16.3781C16.4328 15.5143 16.4776 15.4695 16.4776 15.4148V14.7681C16.4776 14.7134 16.4328 14.6686 16.3781 14.6686H15.4831V10.0171H16.2538ZM11.5054 6.71759L14.8753 9.17017H8.13544L11.5054 6.71759ZM8.42259 10.0171H9.87696V14.6686H8.42259V10.0171ZM10.772 10.0171H12.2263V14.6686H10.772V10.0171ZM14.5881 14.6686H13.1213V10.0171H14.5881V14.6686Z" fill="#FFABD5"/>
</svg>
