<svg width="23" height="24" viewBox="0 0 23 24" fill="none" xmlns="http://www.w3.org/2000/svg">
<g opacity="0.5">
<rect y="0.307678" width="23" height="23" rx="11.5" fill="#00FFA3" fill-opacity="0.31"/>
</g>
<path d="M16.2538 11.3248C16.6379 11.3248 16.7983 10.8311 16.4863 10.6035L11.7391 7.14846C11.6713 7.09876 11.5894 7.07197 11.5054 7.07197C11.4213 7.07197 11.3395 7.09876 11.2717 7.14846L6.52444 10.6035C6.21244 10.8298 6.37279 11.3248 6.75814 11.3248H7.52759V15.9763H6.63259C6.57789 15.9763 6.53314 16.021 6.53314 16.0757V16.7225C6.53314 16.7772 6.57789 16.822 6.63259 16.822H16.3781C16.4328 16.822 16.4776 16.7772 16.4776 16.7225V16.0757C16.4776 16.021 16.4328 15.9763 16.3781 15.9763H15.4831V11.3248H16.2538ZM11.5054 8.02527L14.8753 10.4778H8.13544L11.5054 8.02527ZM8.42259 11.3248H9.87696V15.9763H8.42259V11.3248ZM10.772 11.3248H12.2263V15.9763H10.772V11.3248ZM14.5881 15.9763H13.1213V11.3248H14.5881V15.9763Z" fill="#00FFA3"/>
</svg>
