<svg width="23" height="24" viewBox="0 0 23 24" fill="none" xmlns="http://www.w3.org/2000/svg">
<g opacity="0.5">
<rect y="0.846191" width="23" height="23" rx="11.5" fill="#F00500" fill-opacity="0.31"/>
</g>
<path d="M16.2538 11.8633C16.6379 11.8633 16.7983 11.3696 16.4863 11.142L11.7391 7.68698C11.6713 7.63728 11.5894 7.61049 11.5054 7.61049C11.4213 7.61049 11.3395 7.63728 11.2717 7.68698L6.52444 11.142C6.21244 11.3683 6.37279 11.8633 6.75814 11.8633H7.52759V16.5148H6.63259C6.57789 16.5148 6.53314 16.5595 6.53314 16.6143V17.261C6.53314 17.3157 6.57789 17.3605 6.63259 17.3605H16.3781C16.4328 17.3605 16.4776 17.3157 16.4776 17.261V16.6143C16.4776 16.5595 16.4328 16.5148 16.3781 16.5148H15.4831V11.8633H16.2538ZM11.5054 8.56379L14.8753 11.0164H8.13544L11.5054 8.56379ZM8.42259 11.8633H9.87696V16.5148H8.42259V11.8633ZM10.772 11.8633H12.2263V16.5148H10.772V11.8633ZM14.5881 16.5148H13.1213V11.8633H14.5881V16.5148Z" fill="#F00500"/>
</svg>
