<svg width="50" height="50" viewBox="0 0 50 50" fill="none" xmlns="http://www.w3.org/2000/svg">
<rect width="50" height="50" rx="6" fill="#0F5FC2" fill-opacity="0.15"/>
<path d="M34.3734 23.4971C35.1711 23.4971 35.5042 22.4716 34.8561 21.9989L24.9965 14.8232C24.8557 14.7199 24.6857 14.6643 24.5112 14.6643C24.3366 14.6643 24.1666 14.7199 24.0258 14.8232L14.1662 21.9989C13.5182 22.4691 13.8512 23.4971 14.6515 23.4971H16.2496V33.1578H14.3908C14.2772 33.1578 14.1843 33.2508 14.1843 33.3645V34.7077C14.1843 34.8213 14.2772 34.9143 14.3908 34.9143H34.6315C34.7451 34.9143 34.8381 34.8213 34.8381 34.7077V33.3645C34.8381 33.2508 34.7451 33.1578 34.6315 33.1578H32.7727V23.4971H34.3734ZM24.5112 16.6442L31.5102 21.738H17.5121L24.5112 16.6442ZM18.1085 23.4971H21.1291V33.1578H18.1085V23.4971ZM22.9879 23.4971H26.0086V33.1578H22.9879V23.4971ZM30.9139 33.1578H27.8674V23.4971H30.9139V33.1578Z" fill="#0F5FC2"/>
</svg>
