<svg width="21" height="31" viewBox="0 0 21 31" fill="none" xmlns="http://www.w3.org/2000/svg">
<path d="M17.7292 22.8828H3.27063V25.8881H17.7292V22.8828Z" fill="#EBE7F2"/>
<path d="M12.3651 28.3422H8.63499C8.37008 28.3422 8.15546 28.1274 8.15546 27.8627C8.15546 27.5978 8.37026 27.3832 8.63499 27.3832H12.3651C12.63 27.3832 12.8446 27.598 12.8446 27.8627C12.8446 28.1274 12.63 28.3422 12.3651 28.3422Z" fill="#EBE7F2"/>
<path d="M19.1133 0.708542H1.88672C1.15969 0.708542 0.568359 1.29987 0.568359 2.0269V28.9731C0.568359 29.7001 1.15969 30.2915 1.88672 30.2915H19.1133C19.8403 30.2915 20.4316 29.7001 20.4316 28.9731V2.0269C20.4316 1.29987 19.8403 0.708542 19.1133 0.708542ZM19.5527 28.9731C19.5527 29.2153 19.3557 29.4126 19.1133 29.4126H1.88672C1.64449 29.4126 1.44727 29.2153 1.44727 28.9731V2.0269C1.44727 1.78467 1.64449 1.58745 1.88672 1.58745H19.1133C19.3557 1.58745 19.5527 1.78467 19.5527 2.0269V28.9731Z" fill="#846F75"/>
<path d="M17.7293 2.83269H3.27081C3.02806 2.83269 2.83136 3.02939 2.83136 3.27214V25.8882C2.83136 26.1309 3.02806 26.3276 3.27081 26.3276H17.7293C17.9721 26.3276 18.1688 26.1309 18.1688 25.8882V3.27214C18.1688 3.02939 17.9721 2.83269 17.7293 2.83269ZM17.2899 25.4487H3.71027V3.71159H17.2899V25.4487Z" fill="#846F75"/>
<path d="M11.0201 17.4645L6.48568 12.9301C5.50412 11.9485 5.50412 10.357 6.48568 9.37543L7.01848 8.84264C7.20937 8.65174 7.51875 8.65174 7.70965 8.84264L9.67418 10.8072C9.86508 10.9981 9.86508 11.3074 9.67418 11.4983L9.1558 12.0167C8.9649 12.2076 8.9649 12.517 9.1558 12.7079L11.2423 14.7944C11.4332 14.9853 11.7426 14.9853 11.9335 14.7944L12.4519 14.276C12.6428 14.0851 12.9521 14.0851 13.143 14.276L15.1076 16.2406C15.2985 16.4315 15.2985 16.7408 15.1076 16.9317L14.5748 17.4645C13.593 18.4461 12.0017 18.4461 11.0201 17.4645Z" fill="#65C1D6"/>
</svg>
